<svg version="1.1" id="Layer_1" xmlns="http://www.w3.org/2000/svg" xmlns:xlink="http://www.w3.org/1999/xlink" x="0px" y="0px"
	 width="100%" viewBox="0 0 428 428" enable-background="new 0 0 428 428" xml:space="preserve">
<path fill="#2E3849" opacity="1.000000" stroke="none" 
	d="
M237.000000,429.000000 
	C158.000015,429.000000 79.500015,429.000000 1.000021,429.000000 
	C1.000014,286.333374 1.000014,143.666718 1.000007,1.000059 
	C143.666626,1.000040 286.333252,1.000040 428.999908,1.000020 
	C428.999939,143.666611 428.999939,286.333221 428.999969,428.999908 
	C365.166656,429.000000 301.333344,429.000000 237.000000,429.000000 
M245.500015,74.083099 
	C185.031631,74.083099 124.563248,74.083099 63.944088,74.083099 
	C63.944088,168.015564 63.944088,261.570190 63.944088,355.084961 
	C162.877274,355.084961 261.457458,355.084961 360.148682,355.084961 
	C360.148682,261.339600 360.148682,167.903366 360.148682,74.083099 
	C322.103119,74.083099 284.301575,74.083099 245.500015,74.083099 
z"/>
<path fill="#F5F5F6" opacity="1.000000" stroke="none" 
	d="
M246.000031,74.083099 
	C284.301575,74.083099 322.103119,74.083099 360.148682,74.083099 
	C360.148682,167.903366 360.148682,261.339600 360.148682,355.084961 
	C261.457458,355.084961 162.877274,355.084961 63.944088,355.084961 
	C63.944088,261.570190 63.944088,168.015564 63.944088,74.083099 
	C124.563248,74.083099 185.031631,74.083099 246.000031,74.083099 
M69.782593,165.499893 
	C69.782593,226.601486 69.782593,287.703094 69.782593,348.843323 
	C164.892670,348.843323 259.430328,348.843323 353.832458,348.843323 
	C353.832458,259.093628 353.832458,169.709381 353.832458,80.335999 
	C259.029663,80.335999 164.610458,80.335999 69.782585,80.335999 
	C69.782585,108.574112 69.782585,136.536987 69.782593,165.499893 
z"/>
<path fill="#2E3849" opacity="1.000000" stroke="none" 
	d="
M69.782593,164.999878 
	C69.782585,136.536987 69.782585,108.574112 69.782585,80.335999 
	C164.610458,80.335999 259.029663,80.335999 353.832458,80.335999 
	C353.832458,169.709381 353.832458,259.093628 353.832458,348.843323 
	C259.430328,348.843323 164.892670,348.843323 69.782593,348.843323 
	C69.782593,287.703094 69.782593,226.601486 69.782593,164.999878 
M298.741241,228.125046 
	C298.977112,223.875412 299.212982,219.625793 299.455994,215.247467 
	C284.226654,215.247467 269.787659,215.247467 255.403854,215.247467 
	C254.479813,219.915665 254.029922,224.448135 252.666931,228.687042 
	C246.432861,248.074799 228.382889,260.422150 208.014847,259.534668 
	C187.339966,258.633820 170.684753,244.848846 165.917038,224.655563 
	C165.176193,221.517792 165.564285,216.831009 163.648865,215.573090 
	C161.176605,213.949417 156.911087,215.005402 153.417603,214.996979 
	C142.632294,214.970947 131.846848,214.987473 121.186607,214.987473 
	C119.850098,221.258621 121.103203,231.192184 124.459023,242.394302 
	C140.279144,295.203827 205.680222,321.157135 253.263138,293.277588 
	C277.993317,278.787811 293.653168,257.600739 298.741241,228.125046 
M258.882294,176.240524 
	C256.406006,184.672913 254.403793,193.166977 255.104828,202.341476 
	C256.965973,202.450256 258.433655,202.608429 259.901550,202.610352 
	C271.390381,202.625366 282.883789,202.421570 294.365631,202.702225 
	C298.662506,202.807266 299.628296,201.311996 299.596161,197.281250 
	C299.419556,175.137451 299.513123,152.991547 299.492889,130.846375 
	C299.491577,129.408508 299.314453,127.970810 299.157623,125.606125 
	C279.512024,137.925629 266.207642,154.185211 258.882294,176.240524 
z"/>
<path fill="#FCFCFC" opacity="1.000000" stroke="none" 
	d="
M298.651520,228.558289 
	C293.653168,257.600739 277.993317,278.787811 253.263138,293.277588 
	C205.680222,321.157135 140.279144,295.203827 124.459023,242.394302 
	C121.103203,231.192184 119.850098,221.258621 121.186607,214.987473 
	C131.846848,214.987473 142.632294,214.970947 153.417603,214.996979 
	C156.911087,215.005402 161.176605,213.949417 163.648865,215.573090 
	C165.564285,216.831009 165.176193,221.517792 165.917038,224.655563 
	C170.684753,244.848846 187.339966,258.633820 208.014847,259.534668 
	C228.382889,260.422150 246.432861,248.074799 252.666931,228.687042 
	C254.029922,224.448135 254.479813,219.915665 255.403854,215.247467 
	C269.787659,215.247467 284.226654,215.247467 299.455994,215.247467 
	C299.212982,219.625793 298.977112,223.875412 298.651520,228.558289 
z"/>
<path fill="#FBFBFB" opacity="1.000000" stroke="none" 
	d="
M258.987152,175.857422 
	C266.207642,154.185211 279.512024,137.925629 299.157623,125.606125 
	C299.314453,127.970810 299.491577,129.408508 299.492889,130.846375 
	C299.513123,152.991547 299.419556,175.137451 299.596161,197.281250 
	C299.628296,201.311996 298.662506,202.807266 294.365631,202.702225 
	C282.883789,202.421570 271.390381,202.625366 259.901550,202.610352 
	C258.433655,202.608429 256.965973,202.450256 255.104828,202.341476 
	C254.403793,193.166977 256.406006,184.672913 258.987152,175.857422 
z"/>
</svg>